<svg width="800" height="800" viewBox="0 0 800 800" fill="none" xmlns="http://www.w3.org/2000/svg">
<path fill-rule="evenodd" clip-rule="evenodd" d="M241.667 733.333C241.667 719.527 252.86 708.333 266.667 708.333H533.333C547.14 708.333 558.333 719.527 558.333 733.333C558.333 747.14 547.14 758.333 533.333 758.333H266.667C252.86 758.333 241.667 747.14 241.667 733.333Z" fill="white"/>
<path fill-rule="evenodd" clip-rule="evenodd" d="M400 41.6667C413.807 41.6667 425 52.8597 425 66.6667V100C425 113.807 413.807 125 400 125C386.193 125 375 113.807 375 100V66.6667C375 52.8597 386.193 41.6667 400 41.6667ZM41.6667 400C41.6667 386.193 52.8597 375 66.6667 375H100C113.807 375 125 386.193 125 400C125 413.807 113.807 425 100 425H66.6667C52.8597 425 41.6667 413.807 41.6667 400ZM675 400C675 386.193 686.193 375 700 375H733.333C747.14 375 758.333 386.193 758.333 400C758.333 413.807 747.14 425 733.333 425H700C686.193 425 675 413.807 675 400Z" fill="white"/>
<path fill-rule="evenodd" clip-rule="evenodd" d="M202.756 508.333H66.6667C52.8597 508.333 41.6667 519.527 41.6667 533.333C41.6667 547.14 52.8597 558.333 66.6667 558.333H733.333C747.14 558.333 758.333 547.14 758.333 533.333C758.333 519.527 747.14 508.333 733.333 508.333H597.243H202.756Z" fill="white"/>
<path d="M141.667 633.333C141.667 619.527 152.86 608.333 166.667 608.333H633.333C647.14 608.333 658.333 619.527 658.333 633.333C658.333 647.14 647.14 658.333 633.333 658.333H166.667C152.86 658.333 141.667 647.14 141.667 633.333Z" fill="white"/>
<path d="M146.613 146.613C156.376 136.85 172.205 136.85 181.968 146.613L195.063 159.707C204.826 169.47 204.826 185.299 195.063 195.063C185.299 204.826 169.47 204.826 159.707 195.063L146.613 181.968C136.85 172.205 136.85 156.376 146.613 146.613Z" fill="white"/>
<path d="M653.363 146.621C663.127 156.384 663.127 172.214 653.363 181.977L640.27 195.071C630.507 204.834 614.677 204.834 604.913 195.071C595.15 185.308 595.15 169.479 604.913 159.716L618.007 146.621C627.77 136.858 643.6 136.858 653.363 146.621Z" fill="white"/>
<path d="M175 400C175 439.26 185.07 476.193 202.756 508.333H597.243C614.93 476.193 625 439.26 625 400C625 275.736 524.263 175 400 175C275.736 175 175 275.736 175 400Z" fill="white"/>
</svg>
